<mxfile host="app.diagrams.net" modified="2022-10-12T08:55:19.428Z" agent="5.0 (Macintosh; Intel Mac OS X 10_15_7) AppleWebKit/537.36 (KHTML, like Gecko) Chrome/105.0.0.0 Safari/537.36" etag="8FyAijhuHK6Az05k4cc6" version="20.4.0" type="github">
  <diagram id="7I8V-atkEQuxootXvmIC" name="Page-1">
    <mxGraphModel dx="1426" dy="800" grid="1" gridSize="10" guides="1" tooltips="1" connect="1" arrows="1" fold="1" page="1" pageScale="1" pageWidth="1654" pageHeight="1169" math="0" shadow="0">
      <root>
        <mxCell id="0" />
        <mxCell id="1" parent="0" />
        <mxCell id="hIZ3v94Rgz0X0hFWZxyT-3" style="edgeStyle=orthogonalEdgeStyle;rounded=0;orthogonalLoop=1;jettySize=auto;html=1;exitX=0.75;exitY=1;exitDx=0;exitDy=0;entryX=0.75;entryY=0;entryDx=0;entryDy=0;fontSize=14;" edge="1" parent="1" source="hIZ3v94Rgz0X0hFWZxyT-1" target="hIZ3v94Rgz0X0hFWZxyT-2">
          <mxGeometry relative="1" as="geometry" />
        </mxCell>
        <mxCell id="hIZ3v94Rgz0X0hFWZxyT-5" value="Write" style="edgeLabel;html=1;align=center;verticalAlign=middle;resizable=0;points=[];fontSize=14;" vertex="1" connectable="0" parent="hIZ3v94Rgz0X0hFWZxyT-3">
          <mxGeometry x="-0.025" y="-1" relative="1" as="geometry">
            <mxPoint as="offset" />
          </mxGeometry>
        </mxCell>
        <mxCell id="hIZ3v94Rgz0X0hFWZxyT-4" style="edgeStyle=orthogonalEdgeStyle;rounded=0;orthogonalLoop=1;jettySize=auto;html=1;exitX=0.25;exitY=1;exitDx=0;exitDy=0;entryX=0.25;entryY=0;entryDx=0;entryDy=0;fontSize=14;" edge="1" parent="1" source="hIZ3v94Rgz0X0hFWZxyT-1" target="hIZ3v94Rgz0X0hFWZxyT-2">
          <mxGeometry relative="1" as="geometry" />
        </mxCell>
        <mxCell id="hIZ3v94Rgz0X0hFWZxyT-6" value="Read" style="edgeLabel;html=1;align=center;verticalAlign=middle;resizable=0;points=[];fontSize=14;" vertex="1" connectable="0" parent="hIZ3v94Rgz0X0hFWZxyT-4">
          <mxGeometry x="-0.025" y="1" relative="1" as="geometry">
            <mxPoint as="offset" />
          </mxGeometry>
        </mxCell>
        <mxCell id="hIZ3v94Rgz0X0hFWZxyT-1" value="&lt;font style=&quot;font-size: 14px;&quot;&gt;Client Side&lt;/font&gt;" style="rounded=0;whiteSpace=wrap;html=1;" vertex="1" parent="1">
          <mxGeometry x="660" y="220" width="120" height="60" as="geometry" />
        </mxCell>
        <mxCell id="hIZ3v94Rgz0X0hFWZxyT-10" style="edgeStyle=orthogonalEdgeStyle;rounded=0;orthogonalLoop=1;jettySize=auto;html=1;exitX=0.25;exitY=1;exitDx=0;exitDy=0;entryX=0.5;entryY=0;entryDx=0;entryDy=0;fontSize=14;" edge="1" parent="1" source="hIZ3v94Rgz0X0hFWZxyT-2" target="hIZ3v94Rgz0X0hFWZxyT-7">
          <mxGeometry relative="1" as="geometry" />
        </mxCell>
        <mxCell id="hIZ3v94Rgz0X0hFWZxyT-12" value="Replication" style="edgeLabel;html=1;align=center;verticalAlign=middle;resizable=0;points=[];fontSize=14;" vertex="1" connectable="0" parent="hIZ3v94Rgz0X0hFWZxyT-10">
          <mxGeometry x="0.0154" y="-2" relative="1" as="geometry">
            <mxPoint as="offset" />
          </mxGeometry>
        </mxCell>
        <mxCell id="hIZ3v94Rgz0X0hFWZxyT-11" style="edgeStyle=orthogonalEdgeStyle;rounded=0;orthogonalLoop=1;jettySize=auto;html=1;exitX=0.75;exitY=1;exitDx=0;exitDy=0;entryX=0.5;entryY=0;entryDx=0;entryDy=0;fontSize=14;" edge="1" parent="1" source="hIZ3v94Rgz0X0hFWZxyT-2" target="hIZ3v94Rgz0X0hFWZxyT-8">
          <mxGeometry relative="1" as="geometry" />
        </mxCell>
        <mxCell id="hIZ3v94Rgz0X0hFWZxyT-13" value="Replication" style="edgeLabel;html=1;align=center;verticalAlign=middle;resizable=0;points=[];fontSize=14;" vertex="1" connectable="0" parent="hIZ3v94Rgz0X0hFWZxyT-11">
          <mxGeometry x="-0.0551" y="-1" relative="1" as="geometry">
            <mxPoint as="offset" />
          </mxGeometry>
        </mxCell>
        <mxCell id="hIZ3v94Rgz0X0hFWZxyT-2" value="&lt;font style=&quot;font-size: 14px;&quot;&gt;Primary&lt;/font&gt;" style="rounded=0;whiteSpace=wrap;html=1;fillColor=#dae8fc;strokeColor=#6c8ebf;" vertex="1" parent="1">
          <mxGeometry x="660" y="360" width="120" height="60" as="geometry" />
        </mxCell>
        <mxCell id="hIZ3v94Rgz0X0hFWZxyT-14" style="edgeStyle=orthogonalEdgeStyle;rounded=0;orthogonalLoop=1;jettySize=auto;html=1;exitX=1;exitY=0.5;exitDx=0;exitDy=0;entryX=0;entryY=0.5;entryDx=0;entryDy=0;fontSize=14;startArrow=classic;startFill=1;" edge="1" parent="1" source="hIZ3v94Rgz0X0hFWZxyT-7" target="hIZ3v94Rgz0X0hFWZxyT-8">
          <mxGeometry relative="1" as="geometry" />
        </mxCell>
        <mxCell id="hIZ3v94Rgz0X0hFWZxyT-15" value="Heartbeat" style="edgeLabel;html=1;align=center;verticalAlign=middle;resizable=0;points=[];fontSize=14;" vertex="1" connectable="0" parent="hIZ3v94Rgz0X0hFWZxyT-14">
          <mxGeometry x="0.0111" y="1" relative="1" as="geometry">
            <mxPoint as="offset" />
          </mxGeometry>
        </mxCell>
        <mxCell id="hIZ3v94Rgz0X0hFWZxyT-7" value="&lt;font style=&quot;font-size: 14px;&quot;&gt;Secondary&lt;/font&gt;" style="rounded=0;whiteSpace=wrap;html=1;fillColor=#d5e8d4;strokeColor=#82b366;" vertex="1" parent="1">
          <mxGeometry x="510" y="507" width="120" height="60" as="geometry" />
        </mxCell>
        <mxCell id="hIZ3v94Rgz0X0hFWZxyT-8" value="&lt;font style=&quot;font-size: 14px;&quot;&gt;Secondary&lt;/font&gt;" style="rounded=0;whiteSpace=wrap;html=1;fillColor=#d5e8d4;strokeColor=#82b366;" vertex="1" parent="1">
          <mxGeometry x="810" y="507" width="120" height="60" as="geometry" />
        </mxCell>
      </root>
    </mxGraphModel>
  </diagram>
</mxfile>
